<svg xmlns="http://www.w3.org/2000/svg" width="1400" height="1750" viewBox="0 0 1400 1750">
  <defs>
    <radialGradient id="bg-4038877090" cx="50%" cy="42%" r="75%">
      <stop offset="0%" stop-color="#232228"/>
      <stop offset="55%" stop-color="#131217"/>
      <stop offset="100%" stop-color="#08080a"/>
    </radialGradient>
    <filter id="grain-4038877090">
      <feTurbulence type="fractalNoise" baseFrequency="0.85" numOctaves="2" stitchTiles="stitch" result="noise"/>
      <feColorMatrix in="noise" type="matrix" values="0 0 0 0 1  0 0 0 0 1  0 0 0 0 1  0 0 0 0.05 0"/>
    </filter>
  </defs>
  <rect width="1400" height="1750" fill="url(#bg-4038877090)"/>
  <circle cx="269.0" cy="1404.3" r="457.9" fill="#ffffff" opacity="0.216"/>
  <circle cx="272.5" cy="959.5" r="510.1" fill="#ffffff" opacity="0.190"/>
  <circle cx="1384.5" cy="1559.2" r="529.9" fill="#ffffff" opacity="0.108"/>
  <circle cx="578.3" cy="668.6" r="242.4" fill="none" stroke="#ffffff" stroke-width="1.5" opacity="0.35"/>
  <circle cx="578.3" cy="668.6" r="339.4" fill="none" stroke="#ffffff" stroke-width="1" opacity="0.18"/>
  <path d="M 547.8055610740557 985.4806545889005 L 645.2 971.5 L 575.5 972.7 L 474.0 969.8 L 514.5 1014.6 L 552.2 979.1 L 552.6 891.6 L 536.8 783.7 L 629.7 787.7" fill="none" stroke="#ffffff" stroke-width="1.8" stroke-linecap="round" opacity="0.35"/>
  <path d="M 556.8630938371643 966.0936720843893 L 656.3 982.8 L 731.0 958.1 L 631.9 914.0 L 517.7 922.3 L 398.4 882.1 L 347.1 891.7 L 382.0 955.3 L 349.7 873.4" fill="none" stroke="#ffffff" stroke-width="1.5" stroke-linecap="round" opacity="0.26"/>
  <path d="M 619.6429792651907 1093.8417957979254 L 516.9 1119.8 L 548.5 1043.2 L 550.8 1114.7 L 512.7 1043.2 L 498.8 971.6" fill="none" stroke="#ffffff" stroke-width="1.4" stroke-linecap="round" opacity="0.33"/>
  <rect width="1400" height="1750" filter="url(#grain-4038877090)"/>
  <rect width="1400" height="1750" fill="url(#bg-4038877090)" opacity="0.12"/>
</svg>