<svg xmlns="http://www.w3.org/2000/svg" width="1400" height="1750" viewBox="0 0 1400 1750">
  <defs>
    <radialGradient id="bg-2634132482" cx="50%" cy="42%" r="75%">
      <stop offset="0%" stop-color="#232228"/>
      <stop offset="55%" stop-color="#131217"/>
      <stop offset="100%" stop-color="#08080a"/>
    </radialGradient>
    <filter id="grain-2634132482">
      <feTurbulence type="fractalNoise" baseFrequency="0.85" numOctaves="2" stitchTiles="stitch" result="noise"/>
      <feColorMatrix in="noise" type="matrix" values="0 0 0 0 1  0 0 0 0 1  0 0 0 0 1  0 0 0 0.05 0"/>
    </filter>
  </defs>
  <rect width="1400" height="1750" fill="url(#bg-2634132482)"/>
  <circle cx="1342.9" cy="1293.9" r="689.8" fill="#ffffff" opacity="0.143"/>
  <circle cx="759.5" cy="422.6" r="391.9" fill="#ffffff" opacity="0.108"/>
  <circle cx="93.7" cy="461.4" r="523.8" fill="#ffffff" opacity="0.212"/>
  <circle cx="1188.1" cy="100.3" r="462.8" fill="#ffffff" opacity="0.174"/>
  <circle cx="965.2" cy="1065.6" r="278.7" fill="none" stroke="#ffffff" stroke-width="1.5" opacity="0.35"/>
  <circle cx="965.2" cy="1065.6" r="390.2" fill="none" stroke="#ffffff" stroke-width="1" opacity="0.18"/>
  <path d="M 896.8150856392458 1077.4333135224879 L 777.8 1105.4 L 743.6 1032.9 L 699.8 980.6 L 590.8 1017.6 L 600.6 911.1" fill="none" stroke="#ffffff" stroke-width="1.1" stroke-linecap="round" opacity="0.30"/>
  <path d="M 831.9026488857344 1073.2287449936848 L 869.4 965.5 L 855.6 889.8 L 907.2 936.0 L 962.3 888.6 L 971.5 837.7" fill="none" stroke="#ffffff" stroke-width="1.9" stroke-linecap="round" opacity="0.31"/>
  <path d="M 741.0309673892334 727.210487483535 L 687.6 736.3 L 643.6 638.5 L 549.5 680.4 L 562.9 773.5 L 535.4 708.6 L 471.7 705.9 L 390.7 781.4" fill="none" stroke="#ffffff" stroke-width="1.2" stroke-linecap="round" opacity="0.49"/>
  <rect width="1400" height="1750" filter="url(#grain-2634132482)"/>
  <rect width="1400" height="1750" fill="url(#bg-2634132482)" opacity="0.12"/>
</svg>